<svg width="372" height="340" viewBox="0 0 372 340" fill="none" xmlns="http://www.w3.org/2000/svg">
<path d="M178.834 269.9L80.8736 246.521L104.272 148.48C108.895 129.106 119.161 111.537 133.769 97.9969C148.378 84.4563 166.674 75.5518 186.343 72.4093C206.012 69.2669 226.172 72.0276 244.272 80.3424C262.372 88.6572 277.6 102.153 288.031 119.122C298.461 136.092 303.625 155.773 302.87 175.678C302.115 195.582 295.474 214.815 283.788 230.946C272.102 247.076 255.895 259.379 237.216 266.298C218.538 273.218 198.227 274.443 178.853 269.819M365.189 212.117C370.943 190.828 372.447 168.615 369.616 146.745C366.785 124.875 359.675 103.777 348.69 84.6555C337.705 65.5338 323.062 48.7629 305.596 35.3004C288.129 21.8379 268.183 11.9474 246.894 6.19366C225.606 0.439931 203.392 -1.06437 181.523 1.76662C159.653 4.59762 138.555 11.7085 119.433 22.6932C100.311 33.6779 83.5403 48.3214 70.0778 65.7875C56.6153 83.2537 46.7248 103.2 40.9711 124.489L0.000570349 296.161L161.327 334.663C251.366 356.151 343.054 302.002 365.189 212.117Z" fill="#8472F3"/>
</svg>
